<?xml version="1.0" encoding="UTF-8"?>
<svg version="1.1" xmlns="http://www.w3.org/2000/svg" width="512" height="512">
<path d="M0 0 C1.89493714 -0.00570949 3.78987085 -0.01267599 5.68479919 -0.02079773 C10.8087991 -0.03867965 15.93262728 -0.03757017 21.05664897 -0.03185534 C25.34331757 -0.02875647 29.62995351 -0.03486367 33.91661745 -0.04089409 C44.03330666 -0.05492124 54.1499114 -0.05339294 64.26660156 -0.04199219 C74.6844913 -0.03051106 85.1021236 -0.04459078 95.51997942 -0.07138866 C104.48335449 -0.09357726 113.44664893 -0.10017596 122.4100495 -0.09431225 C127.75520437 -0.09094925 133.10019422 -0.09331413 138.44532585 -0.11056328 C143.47287626 -0.12608086 148.50004651 -0.12202353 153.52758217 -0.10325813 C155.36612248 -0.09958565 157.20469128 -0.10264135 159.04320526 -0.11314392 C176.23544322 -0.20381156 188.26980517 3.57018047 201.23071289 15.40405273 C202.31029828 16.60604592 203.37417223 17.82224914 204.42602539 19.04858398 C208.17649002 23.36962205 212.05369441 27.5560281 215.98071289 31.71655273 C216.67737061 32.45639404 217.37402832 33.19623535 218.09179688 33.95849609 C222.94047589 39.08867888 227.89294066 44.09135797 232.91040039 49.05639648 C235.58349929 51.76099655 238.09826937 54.55806699 240.55102539 57.46264648 C241.73149042 58.82704444 242.96083287 60.1499204 244.22290039 61.43920898 C252.92909794 70.49036908 257.40380748 80.919516 257.34423828 93.38549805 C257.34438431 94.18587494 257.34453033 94.98625183 257.34468079 95.81088257 C257.34398519 98.45134204 257.33620929 101.09173061 257.32836914 103.73217773 C257.32650371 105.56492067 257.3250804 107.3976641 257.32408142 109.23040771 C257.32026611 114.05055115 257.31044422 118.87066438 257.29937744 123.6907959 C257.28914214 128.61083569 257.28457926 133.53088036 257.27954102 138.45092773 C257.26882108 148.10198266 257.25175648 157.75301518 257.23071289 167.40405273 C258.54563721 167.38310547 259.86056152 167.3621582 261.21533203 167.34057617 C266.16346039 167.26735983 271.11154243 167.22196034 276.06005859 167.18432617 C278.18872163 167.16439457 280.31733126 167.13723921 282.44580078 167.10229492 C304.57833802 166.74842412 322.38612245 169.73858363 339.23071289 185.40405273 C355.93694249 202.77611033 357.68621667 222.40618518 357.63476562 245.19824219 C357.64047618 247.48944429 357.64744308 249.78064355 357.65556335 252.07183838 C357.67343523 258.26413551 357.67233745 264.45629046 357.66662097 270.64860559 C357.6635201 275.83215475 357.66963164 281.01567695 357.67565972 286.19922227 C357.69048436 299.13397028 357.68690813 312.06862976 357.67479641 325.00337621 C357.6648702 336.20152793 357.6777999 347.39951427 357.7017306 358.59764049 C357.72619433 370.13331864 357.7353131 381.6689012 357.72907788 393.20460671 C357.72571872 399.66601587 357.72805388 406.12728849 357.7453289 412.58867836 C357.76087573 418.66849575 357.75675685 424.74799922 357.73802376 430.82780457 C357.73435907 433.048036 357.73738375 435.26829109 357.74790955 437.4885006 C357.84622367 459.95633363 354.48598241 479.13861456 338.05102539 495.74389648 C323.90616365 509.08551815 308.14823138 512.70855024 289.29052734 512.69458008 C287.67498974 512.70057135 286.05945499 512.70737827 284.44392395 512.7149353 C280.07174799 512.73254394 275.69965041 512.73728858 271.32744241 512.73856688 C268.59018094 512.73999222 265.85293916 512.74426912 263.1156826 512.74956131 C253.54992797 512.76804629 243.98422893 512.77623405 234.41845703 512.7746582 C225.52866451 512.773458 216.63911524 512.79454054 207.74938422 512.82614553 C200.09556837 512.85237819 192.44183161 512.86302254 184.7879712 512.86174738 C180.22629525 512.8612397 175.66483554 512.8668148 171.10320473 512.88810349 C166.80780352 512.90760353 162.51282216 512.90753082 158.21740532 512.89307022 C156.65060938 512.89099535 155.08378634 512.89560314 153.51703644 512.90779114 C134.63665906 513.04502381 119.09095596 507.41231685 105.23071289 494.40405273 C91.83360559 480.28965644 86.92908285 463.40674517 87.23071289 444.40405273 C84.26071289 444.40405273 81.29071289 444.40405273 78.23071289 444.40405273 C78.14821289 445.55905273 78.06571289 446.71405273 77.98071289 447.90405273 C77.40745683 452.64184548 75.54848487 456.29000748 73.23071289 460.40405273 C72.90071289 461.06405273 72.57071289 461.72405273 72.23071289 462.40405273 C73.15582795 464.20371386 74.14761459 465.96926994 75.16821289 467.71655273 C79.19086269 475.50926735 79.77222719 483.29470903 77.16821289 491.71655273 C73.83487244 499.03138317 68.42884194 503.96094268 61.25671005 507.38386536 C55.30689214 509.38979226 49.17699452 509.08004532 42.96557617 509.01928711 C41.44663881 509.02279458 39.92770515 509.0284602 38.40878296 509.03610229 C34.30927928 509.05027263 30.21045269 509.03336407 26.11101389 509.00981712 C21.8031693 508.9895998 17.49534988 508.99559344 13.18746948 508.9979248 C5.95323632 508.99787134 -1.28073475 508.97818056 -8.51489258 508.94604492 C-16.85260379 508.90918469 -25.18997165 508.90036676 -33.52775371 508.90734243 C-41.57846661 508.91367122 -49.62906301 508.90284757 -57.67975235 508.88337708 C-61.09172362 508.87524878 -64.50363496 508.87248505 -67.91561508 508.87406921 C-71.94264643 508.87495509 -75.96935697 508.8605452 -79.99630356 508.83484268 C-81.46513309 508.82774489 -82.93399691 508.82556601 -84.40283966 508.82896042 C-104.11142053 508.86578466 -120.41488653 503.20294245 -134.76928711 489.40405273 C-148.39774915 475.44264781 -155.34112158 457.85531277 -155.12133789 438.36938477 C-154.42612901 418.53435618 -146.24002646 401.07777388 -131.83178711 387.52905273 C-121.0893025 378.40123606 -107.98594854 372.27446058 -93.76928711 371.40405273 C-93.81569336 370.7144043 -93.86209961 370.02475586 -93.90991211 369.31420898 C-94.22659452 361.06915612 -92.2245232 355.8030174 -88.26928711 348.71655273 C-87.4470367 346.18580891 -87.4470367 346.18580891 -89.51928711 343.46655273 C-90.26178711 342.45592773 -91.00428711 341.44530273 -91.76928711 340.40405273 C-94.81124643 334.01593815 -94.72740315 326.4487941 -93.11694336 319.65014648 C-90.10400855 311.18030828 -84.79288919 305.96303298 -76.76147461 302.13061523 C-72.1702323 300.45616216 -67.8154007 300.29247583 -62.95678711 300.34155273 C-61.7953418 300.35057617 -60.63389648 300.35959961 -59.43725586 300.36889648 C-58.11661133 300.38629883 -58.11661133 300.38629883 -56.76928711 300.40405273 C-56.77080599 299.85883699 -56.77232487 299.31362124 -56.77388978 298.7518838 C-56.86350107 266.40144732 -56.93208326 234.05104383 -56.97354843 201.70051174 C-56.97855095 197.81173418 -56.98372827 193.92295687 -56.98901367 190.03417969 C-56.99006291 189.26002988 -56.99111216 188.48588008 -56.99219319 187.68827119 C-57.00957431 175.17135259 -57.04109928 162.65450786 -57.07789829 150.137633 C-57.11537168 137.28368378 -57.13753645 124.42977311 -57.14564109 111.57577151 C-57.15111564 103.65114069 -57.16837441 95.72671869 -57.20095298 87.80215218 C-57.22469788 81.71433537 -57.22709088 75.62669628 -57.22171783 69.5388279 C-57.22281469 67.04964924 -57.23072329 64.56046238 -57.24610901 62.07133102 C-57.35573993 43.41364365 -56.45531916 27.48401434 -43.01928711 13.15405273 C-30.25878705 1.14559735 -16.73573187 -0.04560388 0 0 Z " fill="#020100" transform="translate(154.769287109375,-0.404052734375)"/>
<path d="M0 0 C1.92363121 -0.01073296 1.92363121 -0.01073296 3.88612366 -0.02168274 C5.30030798 -0.02452273 6.71449257 -0.02723449 8.12867737 -0.02983093 C9.6239233 -0.03610038 11.11916769 -0.04274761 12.6144104 -0.04974365 C17.51962713 -0.07073873 22.42484398 -0.08114551 27.33009338 -0.09111023 C29.02398761 -0.09516025 30.71788168 -0.09927724 32.41177559 -0.10346031 C40.37597332 -0.12250627 48.34016186 -0.1367355 56.30437797 -0.14507228 C65.46930929 -0.15482639 74.63399791 -0.18110046 83.7988438 -0.22157317 C90.89974359 -0.25184443 98.00057428 -0.26655175 105.10153729 -0.26985329 C109.33411226 -0.27219229 113.56642783 -0.28100065 117.79893303 -0.30631447 C121.78895928 -0.32979223 125.77855898 -0.33375045 129.7686367 -0.32355309 C131.22213927 -0.32306227 132.67566426 -0.32924632 134.1291008 -0.34310913 C150.49977366 -0.4903398 164.13516186 3.41469643 176.64649963 14.14717102 C178.70899963 16.48701477 178.70899963 16.48701477 180.64649963 19.08467102 C181.28587463 19.91869446 181.92524963 20.7527179 182.58399963 21.61201477 C190.54894792 34.44648938 190.35467611 46.67166675 190.26173401 61.31196594 C190.26523979 63.64246016 190.27090351 65.97295197 190.27854919 68.30343628 C190.29273838 74.60081831 190.27579425 80.89776063 190.25226402 87.19510055 C190.23413555 93.12889628 190.23740523 99.0626541 190.23974186 104.99647132 C190.24342258 116.75210164 190.22268623 128.50756223 190.18849182 140.26313782 C190.15538386 151.64957464 190.14123848 163.03583351 190.1474762 174.4223175 C190.15497412 188.17667862 190.14757044 201.93093534 190.12582397 215.68528175 C190.1176643 220.92706201 190.11493778 226.16880315 190.11651611 231.41058922 C190.11739684 237.5839368 190.10312794 243.75707285 190.07728958 249.93036461 C190.07014536 252.1918078 190.06803572 254.45327353 190.07140732 256.71472549 C190.07513971 259.80894568 190.06031334 262.90255447 190.04090881 265.9967041 C190.04623674 266.88475383 190.05156466 267.77280355 190.05705404 268.68776387 C189.92734907 280.73133638 185.39070358 291.76686396 177.31837463 300.73310852 C172.01949929 305.74871065 166.47570407 309.54827933 159.64649963 312.14717102 C158.69525412 312.51699821 158.69525412 312.51699821 157.72479153 312.89429665 C149.95529071 315.58943835 142.41804684 315.57198091 134.2736969 315.53535461 C132.74328743 315.53942718 131.2128809 315.54477288 129.68247986 315.55128479 C125.55222561 315.56488402 121.42219785 315.55969023 117.29193997 315.55014753 C112.95292158 315.54251101 108.61392157 315.5496077 104.27490234 315.55430603 C96.98947192 315.55975259 89.70413295 315.55260152 82.41871643 315.5382843 C74.01851743 315.52196604 65.61853701 315.52724473 57.21834332 315.54376352 C49.9831912 315.55741714 42.74810454 315.55927898 35.51294369 315.55144751 C31.20180524 315.54679145 26.89076922 315.5460887 22.57963753 315.55605698 C18.5239143 315.56478081 14.4684703 315.55860688 10.41277695 315.54137421 C8.93222833 315.53743782 7.45165585 315.53849401 5.97111702 315.5451622 C-9.96750713 315.61027968 -23.52128055 312.2979541 -35.35350037 301.14717102 C-45.30969596 289.65789752 -48.50890182 278.60655643 -48.49394226 263.66117859 C-48.49691338 262.72515293 -48.49988451 261.78912727 -48.50294566 260.82473719 C-48.51159492 257.69831926 -48.51313771 254.57193979 -48.51463318 251.44551086 C-48.51926404 249.19958922 -48.52428906 246.95366836 -48.52967834 244.70774841 C-48.5427789 238.61244342 -48.54924279 232.51714943 -48.553689 226.42183256 C-48.55662365 222.61034339 -48.5607292 218.7988572 -48.56519318 214.98736954 C-48.57729745 204.41857466 -48.5876809 193.84978239 -48.59106827 183.28098106 C-48.59128783 182.60544663 -48.5915074 181.9299122 -48.59173362 181.23390702 C-48.5919519 180.55682666 -48.59217018 179.87974629 -48.59239507 179.18214834 C-48.59283852 177.81030043 -48.59328508 176.43845252 -48.59373474 175.06660461 C-48.59395617 174.38613176 -48.5941776 173.70565891 -48.59440574 173.00456567 C-48.59835042 161.98833482 -48.61579666 150.97217024 -48.63909426 139.95596497 C-48.6628625 128.62504124 -48.67501512 117.29416188 -48.67643619 105.96320879 C-48.67748226 99.60968933 -48.68334804 93.25626341 -48.7012558 86.90276718 C-48.71778436 80.92241164 -48.71986872 74.94221951 -48.71111679 68.96184921 C-48.71034897 66.77422141 -48.7146553 64.58658464 -48.72457504 62.39897919 C-48.8012198 44.43437222 -48.15898072 28.15133662 -35.10350037 14.33467102 C-25.25812994 5.10050647 -13.50452854 0.05185875 0 0 Z " fill="#79C88F" transform="translate(306.35350036621094,181.8528289794922)"/>
<path d="M0 0 C1.16765733 -0.00128164 1.16765733 -0.00128164 2.35890371 -0.00258917 C4.97532036 -0.00424031 7.59167333 0.00127146 10.20808411 0.00672913 C12.08042398 0.0070111 13.95276396 0.00685306 15.82510376 0.00628662 C20.91568249 0.00599905 26.00623778 0.01188923 31.09681106 0.01886058 C36.4139556 0.02510087 41.73110065 0.02569845 47.04824829 0.02688599 C57.12045468 0.0299973 67.19265025 0.03820802 77.26485187 0.04823548 C88.73023993 0.05940279 100.1956285 0.06490863 111.66102064 0.06993091 C135.24938699 0.08039078 158.83774373 0.09798638 182.42610168 0.12025452 C182.43196793 0.95297379 182.43783417 1.78569305 182.44387817 2.64364624 C182.50175277 10.48660687 182.57379903 18.32928111 182.6618166 26.17196369 C182.70656756 30.20410481 182.74581297 34.23614379 182.77253723 38.26844788 C182.79852351 42.15898615 182.83889192 46.04913234 182.88928795 49.93942833 C182.9059885 51.4245485 182.91748291 52.90973653 182.92371559 54.39493752 C182.93332259 56.47347356 182.9613379 58.55099937 182.99372864 60.62928772 C183.0048317 61.81287369 183.01593475 62.99645966 183.02737427 64.21591187 C183.19274381 67.10704032 183.19274381 67.10704032 184.78346729 69.00101948 C187.29826463 70.7145166 189.44246378 70.52204318 192.45808411 70.55262756 C193.69914413 70.57242172 194.94020416 70.59221588 196.21887207 70.61260986 C197.57310332 70.61937961 198.92733621 70.62582648 200.28157043 70.63197327 C201.6673543 70.64881856 203.05312287 70.66696861 204.43887329 70.68637085 C208.0835136 70.7338939 211.72809191 70.76368795 215.37294006 70.78981018 C219.09325914 70.81960435 222.81336452 70.86613851 226.53352356 70.91127014 C233.83094363 70.99732929 241.12837919 71.06466255 248.42610168 71.12025452 C249.92863084 74.12531282 249.55602928 77.21282385 249.53962708 80.50746155 C249.5397731 81.2685321 249.53991913 82.02960266 249.54006958 82.81373596 C249.53937161 85.33520841 249.53158463 87.85660744 249.52375793 90.37806702 C249.52189334 92.12398742 249.52046963 93.86990835 249.51947021 95.61582947 C249.51564828 100.2157078 249.50582073 104.81555466 249.49476624 109.41542053 C249.48454518 114.10739211 249.4799711 118.79936877 249.47492981 123.49134827 C249.46419819 132.70099753 249.44712563 141.91062341 249.42610168 151.12025452 C247.62777641 151.12905388 247.62777641 151.12905388 245.79312134 151.13803101 C234.45089395 151.19544134 223.10885493 151.26829764 211.76681995 151.35596943 C205.9368715 151.40054573 200.10699089 151.43982957 194.27693176 151.46669006 C188.64225979 151.49285055 183.00785068 151.53334199 177.37334251 151.58344078 C175.23219276 151.6000237 173.09099763 151.61159101 170.94979286 151.61786842 C151.27123742 151.68135468 134.92127503 153.49583454 119.26594543 166.70228577 C117.42610168 168.12025452 117.42610168 168.12025452 114.42610168 169.12025452 C113.71564481 170.43077855 113.05491896 171.76865877 112.42610168 173.12025452 C111.34624046 174.49388151 110.23977245 175.84683132 109.11360168 177.18275452 C100.08526538 188.5810291 97.28582844 201.65818713 97.2678833 215.86488342 C97.26294532 216.70884706 97.25800735 217.55281069 97.25291973 218.42234898 C97.23764743 221.23050314 97.22921217 224.03863463 97.22077942 226.84681702 C97.21119281 228.86767778 97.20118227 230.88853658 97.19078064 232.90939331 C97.16381035 238.38187288 97.14275826 243.85436101 97.12277865 249.32686996 C97.10087039 255.05106403 97.07350543 260.77523195 97.04672241 266.49940491 C96.99686089 277.33286856 96.95189785 288.16634678 96.90870005 298.99983883 C96.85927171 311.3359617 96.80437437 323.67205834 96.74902046 336.00815582 C96.63530083 361.3788309 96.52844006 386.74953116 96.42610168 412.12025452 C93.98675943 412.25527346 91.55486064 412.35429348 89.11360168 412.43275452 C88.42330872 412.47464905 87.73301575 412.51654358 87.02180481 412.55970764 C85.00032043 412.60853577 85.00032043 412.60853577 81.42610168 412.12025452 C79.44563293 409.60072327 79.44563293 409.60072327 78.42610168 407.12025452 C78.76383606 406.61236389 79.10157043 406.10447327 79.44953918 405.58119202 C84.20406451 398.24328299 86.5291144 391.95764555 85.42610168 383.12025452 C83.90952755 378.33146622 81.7394906 373.93065177 78.42610168 370.12025452 C79.95450303 366.93608505 81.70316806 363.92437072 83.52375793 360.90150452 C86.31567997 355.39017789 86.46740833 348.43490885 84.63703918 342.60853577 C82.98456582 338.79270987 81.17251975 335.27863529 78.42610168 332.12025452 C79.95450303 328.93608505 81.70316806 325.92437072 83.52375793 322.90150452 C86.31567997 317.39017789 86.46740833 310.43490885 84.63703918 304.60853577 C82.96309144 300.74312209 81.06393284 297.41754346 78.42610168 294.12025452 C78.42610168 293.46025452 78.42610168 292.80025452 78.42610168 292.12025452 C77.85127517 291.83337894 77.27644865 291.54650337 76.68420315 291.2509346 C75.2553822 290.53549315 73.83175178 289.8095057 72.41568851 289.06913376 C66.64515471 286.23790281 61.8791338 285.53766887 55.50007629 285.57435608 C54.55266571 285.5640184 53.60525513 285.55368073 52.62913513 285.54302979 C49.52872833 285.51376718 46.42897904 285.51210611 43.32844543 285.51087952 C41.16653206 285.49588672 39.00463009 285.47915728 36.84274292 285.46076965 C31.17602491 285.41720764 25.5094614 285.39712167 19.84260559 285.3820343 C14.05068367 285.36242306 8.25892761 285.32045754 2.46711731 285.28041077 C-8.8798366 285.20522935 -20.22675317 285.15486477 -31.57389832 285.12025452 C-31.71135716 251.94731286 -31.81701993 218.77444533 -31.88029029 185.60128365 C-31.88779416 181.68117452 -31.89556013 177.76106594 -31.90348816 173.84095764 C-31.90506202 173.0605643 -31.90663588 172.28017095 -31.90825744 171.47612932 C-31.93433557 158.85502253 -31.9816265 146.23408041 -32.03681509 133.61307117 C-32.09300739 120.65404129 -32.12626854 107.69509741 -32.13842928 94.73595071 C-32.14664489 86.74517971 -32.17255283 78.75487424 -32.22139712 70.76424661 C-32.25698791 64.6276518 -32.26060852 58.4914088 -32.2525444 52.35472488 C-32.25419097 49.84414689 -32.26607129 47.33355078 -32.28913116 44.82307816 C-32.5166365 18.77061047 -32.5166365 18.77061047 -23.79823875 9.16361618 C-17.14843502 2.74656331 -9.05557629 -0.03610671 0 0 Z " fill="#FDD9A9" transform="translate(146.5738983154297,15.879745483398438)"/>
<path d="M0 0 C14.3169864 -0.73222811 27.42476922 4.895762 38.3828125 13.84375 C47.95702084 22.67822922 54.65023448 35.59507367 55.6640625 48.578125 C56.1636018 65.2179513 51.13950934 79.88881225 39.75683594 92.03198242 C35.39517437 96.46382998 31.03280898 99.63101567 25.40234375 102.2265625 C24.3659375 102.70996094 23.32953125 103.19335938 22.26171875 103.69140625 C9.47442665 108.96105516 -4.59743597 109.06257089 -17.59765625 104.2265625 C-31.3745109 98.38825906 -41.84773452 87.9901466 -47.875 74.33203125 C-53.20097476 60.47691541 -53.30463602 45.98002928 -47.59765625 32.2265625 C-40.93851885 18.5142559 -30.12682284 8.29476057 -15.84765625 2.7890625 C-10.48472428 1.05242119 -5.56889309 0.48570797 0 0 Z " fill="#EA8500" transform="translate(94.59765625,385.7734375)"/>
<path d="M0 0 C1.25620148 -0.00860046 2.51240295 -0.01720093 3.80667114 -0.02606201 C5.20666463 -0.03049739 6.60665855 -0.03479574 8.00665283 -0.03897095 C9.47502843 -0.04687105 10.94340208 -0.05513994 12.41177368 -0.06375122 C17.24188377 -0.08998373 22.07200259 -0.10528084 26.90216064 -0.11953735 C28.56434383 -0.12489668 30.22652695 -0.13027418 31.88871002 -0.13566971 C38.80292891 -0.15730093 45.71714545 -0.17603761 52.63138962 -0.1872921 C62.54277703 -0.20353066 72.45377235 -0.23670311 82.36501193 -0.29369295 C89.33239205 -0.33239029 96.2996673 -0.35192457 103.26715207 -0.35721266 C107.42916196 -0.36086667 111.59075379 -0.37289237 115.7526474 -0.4053154 C119.66962828 -0.4353925 123.58593808 -0.44170956 127.5030098 -0.42993164 C128.93891781 -0.42971087 130.37485692 -0.43801947 131.8106575 -0.45558548 C144.00286553 -0.59660205 144.00286553 -0.59660205 147.9589386 2.4475708 C150.82821575 6.06544284 150.95536001 9.12088478 150.86700439 13.56015015 C150.87205742 14.76363098 150.87205742 14.76363098 150.87721252 15.99142456 C150.8769144 17.68253002 150.86173322 19.37369049 150.83258057 21.06454468 C150.79289483 23.64679554 150.81187924 26.22390828 150.83770752 28.8062439 C150.83014781 30.45339915 150.81919373 32.10054305 150.80450439 33.74765015 C150.81148849 34.51548828 150.8184726 35.28332642 150.82566833 36.07443237 C150.71958283 40.12070418 150.27786731 41.94248891 147.68658447 45.11679077 C143.37491792 48.51947173 140.05767795 48.31057547 134.74005127 48.32748413 C133.87490402 48.33417114 133.00975677 48.34085815 132.11839294 48.3477478 C130.23644936 48.36181508 128.35448855 48.37370377 126.47251892 48.3836956 C123.49770839 48.40007001 120.52302609 48.42330494 117.54827881 48.44859314 C109.08931836 48.51947744 100.63030617 48.57958856 92.17120361 48.63070679 C87.00116719 48.66243061 81.83127872 48.70368672 76.66136169 48.75090218 C74.68695222 48.76695946 72.71250864 48.7792637 70.73805237 48.78780937 C67.98205465 48.79991161 65.22640737 48.82403852 62.47052002 48.85092163 C61.64863693 48.85151077 60.82675385 48.85209991 59.97996521 48.85270691 C55.57345219 48.73448002 55.57345219 48.73448002 52.10528564 51.15390015 C51.70764302 53.14211328 51.36753216 55.14334354 51.10528564 57.15390015 C50.77528564 56.49390015 50.44528564 55.83390015 50.10528564 55.15390015 C48.91290283 55.21190796 47.72052002 55.26991577 46.49200439 55.3296814 C44.92563723 55.37657862 43.35922781 55.42207882 41.79278564 55.46640015 C41.00710205 55.50829468 40.22141846 55.55018921 39.41192627 55.59335327 C37.20378184 55.64033507 35.26266101 55.6337628 33.10528564 55.15390015 C31.12481689 52.6968689 31.12481689 52.6968689 30.10528564 50.15390015 C28.15997013 48.20858463 24.4391924 49.01706894 21.78106689 49.01327515 C20.26217182 48.99493643 18.74329122 48.97536514 17.22442627 48.9546814 C14.82582424 48.92578553 12.4281449 48.90390226 10.02935791 48.90341187 C7.71659174 48.90006176 5.4059603 48.86541215 3.09356689 48.82577515 C2.38396317 48.83284485 1.67435944 48.83991455 0.94325256 48.84719849 C-4.73236302 48.70958529 -7.08531656 47.08557311 -10.89471436 43.15390015 C-12.08246111 39.5906599 -12.09451578 36.31095486 -12.13299561 32.59921265 C-12.14106735 31.86065033 -12.1491391 31.12208801 -12.15745544 30.36114502 C-12.17127309 28.79941134 -12.18200561 27.23764776 -12.18988037 25.6758728 C-12.20141112 24.08138157 -12.22188048 22.48692926 -12.25140381 20.89266968 C-12.29411526 18.58625109 -12.31025231 16.28097777 -12.32049561 13.97421265 C-12.34675774 12.91147629 -12.34675774 12.91147629 -12.37355042 11.82727051 C-12.35778725 8.21378897 -11.98142431 6.28733262 -9.99310303 3.22763062 C-6.63694381 -0.08909032 -4.621812 0.02348725 0 0 Z " fill="#3C99E0" transform="translate(307.89471435546875,214.84609985351563)"/>
<path d="M0 0 C1 2 1 2 0.45503563 4.03020072 C0.16849477 4.8446189 -0.11804608 5.65903709 -0.41327 6.49813461 C-2.07812573 11.7924245 -2.42556002 16.51053898 -2.38768005 22.02984619 C-2.39306559 22.98814732 -2.39845113 23.94644845 -2.40399987 24.93378901 C-2.41821042 28.11777708 -2.41119271 31.30134533 -2.40405273 34.48535156 C-2.40975999 36.7793562 -2.41672563 39.073358 -2.42485046 41.36735535 C-2.44275997 47.58035608 -2.44161728 53.7932154 -2.43590808 60.00623417 C-2.43281228 65.20224797 -2.43891322 70.39823477 -2.44494683 75.59424472 C-2.45978565 88.55939277 -2.45618483 101.52445257 -2.44408352 114.48959908 C-2.43415923 125.72162511 -2.44708124 136.95348622 -2.47101771 148.18548682 C-2.49546651 159.74592056 -2.5046034 171.30625894 -2.49836498 182.86671996 C-2.49500234 189.34599506 -2.49736422 195.82513403 -2.51461601 202.30438995 C-2.53014192 208.40139748 -2.52606683 214.49809165 -2.50731087 220.59508705 C-2.50364026 222.8242188 -2.50668847 225.05337405 -2.51719666 227.28248405 C-2.624539 245.66147257 -2.624539 245.66147257 3 263 C3.33 256.73 3.66 250.46 4 244 C4.33 244 4.66 244 5 244 C5.01458252 244.9379541 5.02916504 245.8759082 5.04418945 246.84228516 C5.10546717 250.34269379 5.17965932 253.84234449 5.26245117 257.34228516 C5.29557926 258.85324904 5.32364855 260.36433307 5.34643555 261.87548828 C5.38020681 264.05553082 5.43252896 266.23448439 5.48828125 268.4140625 C5.51446533 269.7232666 5.54064941 271.0324707 5.56762695 272.38134766 C6.18521077 277.55008136 7.70062432 280.82739268 11.5625 284.3125 C15.21731385 286.84275574 17.33167755 287.14419211 21.75 287.375 C26.57057695 287.73697419 29.78268127 288.54807051 34 291 C38.77405224 292.59499727 42.93106515 293.25494644 47.95396423 293.2784729 C48.94911359 293.2871615 48.94911359 293.2871615 49.96436697 293.29602563 C52.16762007 293.31291018 54.37066225 293.31589204 56.57397461 293.31884766 C58.161199 293.32815383 59.74841853 293.33832353 61.33563232 293.34928894 C65.63052509 293.37652532 69.92538516 293.39171944 74.22034144 293.40471697 C78.71403538 293.4203754 83.20766284 293.44715696 87.7013092 293.4727478 C96.20442478 293.5194876 104.70755292 293.55625492 113.21073109 293.58942068 C122.89394258 293.62767599 132.57708724 293.67707722 142.26024234 293.72740483 C162.17344551 293.83065331 182.08669101 293.91993672 202 294 C198.47662992 297.65557072 195.74627538 299.88539181 191 301.75 C189.4840625 302.36101562 189.4840625 302.36101562 187.9375 302.984375 C183.05359392 304.67295955 178.6743182 305.12695939 173.51242065 305.14044189 C171.54442253 305.14900711 171.54442253 305.14900711 169.53666687 305.15774536 C168.08938608 305.15899059 166.64210519 305.16011572 165.19482422 305.16113281 C163.66515484 305.16576406 162.1354866 305.17078914 160.6058197 305.17617798 C156.45468357 305.18927679 152.30356359 305.19574233 148.15241003 305.20018864 C145.55539198 305.2031242 142.9583783 305.20722998 140.36136246 305.21169281 C132.22577462 305.22536281 124.09019683 305.23503118 115.95459831 305.2388947 C106.58253089 305.24337053 97.21060967 305.26089839 87.83858669 305.2898953 C80.58232004 305.31156177 73.32609436 305.32160167 66.06979573 305.32293582 C61.74179463 305.32398055 57.41393106 305.32981696 53.0859642 305.34775543 C49.00981827 305.36432161 44.93391197 305.36635051 40.85774422 305.35761642 C39.3691258 305.35685053 37.88049404 305.36112915 36.39190865 305.37107468 C20.42059195 305.47144613 6.85748397 302.17459223 -5 291 C-14.9561956 279.5107265 -18.15540146 268.45938541 -18.14044189 253.51400757 C-18.14341302 252.57798191 -18.14638414 251.64195625 -18.1494453 250.67756617 C-18.15809455 247.55114824 -18.15963735 244.42476877 -18.16113281 241.29833984 C-18.16576367 239.0524182 -18.1707887 236.80649734 -18.17617798 234.56057739 C-18.18927854 228.4652724 -18.19574242 222.36997841 -18.20018864 216.27466154 C-18.20312328 212.46317237 -18.20722884 208.65168618 -18.21169281 204.84019852 C-18.22379708 194.27140364 -18.23418054 183.70261137 -18.2375679 173.13381004 C-18.23778747 172.45827561 -18.23800703 171.78274118 -18.23823325 171.086736 C-18.23845153 170.40965564 -18.23866981 169.73257527 -18.2388947 169.03497732 C-18.23933815 167.66312941 -18.23978472 166.2912815 -18.24023438 164.91943359 C-18.2404558 164.23896074 -18.24067723 163.55848789 -18.24090537 162.85739465 C-18.24485005 151.8411638 -18.26229629 140.82499922 -18.2855939 129.80879395 C-18.30936214 118.47787022 -18.32151475 107.14699086 -18.32293582 95.81603777 C-18.32398189 89.46251831 -18.32984767 83.10909239 -18.34775543 76.75559616 C-18.36428399 70.77524062 -18.36636835 64.79504849 -18.35761642 58.81467819 C-18.3568486 56.62705039 -18.36115493 54.43941362 -18.37107468 52.25180817 C-18.44200185 35.62733356 -18.32565805 19.46850831 -6.609375 6.31640625 C-4.45631919 4.1464239 -2.2718084 2.04462756 0 0 Z " fill="#4CB967" transform="translate(276,192)"/>
<path d="M0 0 C1.62905273 -0.04930664 1.62905273 -0.04930664 3.29101562 -0.09960938 C11.65998607 -0.15489987 18.13600789 1.14341193 24.40422058 6.89906311 C31.19623323 14.8161018 29.65711655 25.58537125 29.57421875 35.37890625 C29.57572284 37.43196333 29.57915695 39.48501981 29.58442688 41.53807068 C29.58874746 45.82930237 29.57200066 50.11977974 29.53979492 54.41088867 C29.49999036 59.89760655 29.50933202 65.38291271 29.53402996 70.86967564 C29.54824426 75.10523453 29.53810191 79.34046632 29.52051735 83.57600212 C29.51468842 85.59850215 29.51593891 87.62103594 29.52454185 89.64352608 C29.53257653 92.47477195 29.50818136 95.30398063 29.4753418 98.13500977 C29.48389191 98.96172684 29.49244202 99.78844391 29.50125122 100.64021301 C29.35747562 107.85945289 26.57095645 112.75163451 21.4375 117.75 C14.34141631 122.31176809 8.69478492 122.93385378 0.375 122.875 C-0.62337891 122.89498047 -1.62175781 122.91496094 -2.65039062 122.93554688 C-10.58652152 122.93032917 -15.80880586 121.20188612 -21.9375 116.1875 C-27.04555569 109.94432082 -28.78612902 104.38744344 -28.72094727 96.39453125 C-28.72956284 95.52839203 -28.73817841 94.66225281 -28.74705505 93.76986694 C-28.76960958 90.92960034 -28.76299621 88.09032877 -28.75390625 85.25 C-28.75914612 83.26277374 -28.76542393 81.27554997 -28.77268982 79.28833008 C-28.78307434 75.1325303 -28.77855996 70.97707336 -28.76391602 66.82128906 C-28.74672238 61.50835297 -28.77024115 56.19649781 -28.80540562 50.88368225 C-28.82741429 46.78284607 -28.82592986 42.68226722 -28.8176403 38.58139038 C-28.81682286 36.62306532 -28.8236465 34.66472098 -28.83841133 32.70645142 C-28.85592373 29.96378987 -28.84126042 27.22305449 -28.81860352 24.48046875 C-28.83029572 23.68023285 -28.84198792 22.87999695 -28.85403442 22.05551147 C-28.74299029 15.41504553 -26.31262101 10.67381917 -21.7094965 5.90690613 C-14.988929 -0.02948869 -8.54920166 0.04486462 0 0 Z " fill="#030301" transform="translate(445.1875,357.5625)"/>
<path d="M0 0 C1.30640442 -0.01142029 2.61280884 -0.02284058 3.95880127 -0.03460693 C5.3945919 -0.03709722 6.83038297 -0.0393475 8.26617432 -0.04138184 C9.78776527 -0.05064697 11.30935161 -0.06069747 12.83093262 -0.07147217 C16.9550825 -0.09763925 21.07916739 -0.11059405 25.20338726 -0.11949348 C27.78349103 -0.12536784 30.36357727 -0.13357983 32.94367218 -0.14250183 C41.0263942 -0.16982994 49.10907588 -0.18917409 57.19184089 -0.19690561 C66.50353968 -0.20586319 75.81465074 -0.2409501 85.12617087 -0.2989068 C92.33659165 -0.34221901 99.54684753 -0.36231831 106.75739694 -0.36498785 C111.05813757 -0.3670783 115.35832493 -0.37877079 119.65892792 -0.41462708 C123.7073975 -0.44772658 127.754902 -0.45183505 131.80345917 -0.43434906 C133.28284298 -0.43281557 134.76228018 -0.44139806 136.24153137 -0.46126556 C145.37103354 -0.57661646 152.328875 0.14391939 159.42340088 6.28088379 C167.20167267 15.49246107 167.82022023 25.01548732 167.84893799 36.67614746 C167.86078353 38.94589893 167.90999652 41.21288025 167.96051025 43.48205566 C168.07145014 53.37533476 167.26358089 62.70681367 160.46221924 70.53942871 C153.80420709 77.02710532 146.30920126 78.73512737 137.31695557 78.68493652 C136.00810898 78.6952314 136.00810898 78.6952314 134.67282104 78.70573425 C131.81346989 78.72390883 128.95467189 78.72018041 126.09527588 78.71447754 C124.09846825 78.71904169 122.10166219 78.72434796 120.1048584 78.73036194 C115.93232819 78.73927301 111.75998963 78.73689021 107.58746338 78.72692871 C102.23841384 78.71540279 96.8900209 78.73571611 91.54105759 78.76484585 C87.42325644 78.78317351 83.30561397 78.78292292 79.18778229 78.77720833 C77.21498946 78.7770549 75.24218603 78.78311695 73.26943207 78.7954998 C70.5166207 78.81035449 67.7650405 78.79977618 65.01226807 78.78259277 C64.19765106 78.79226074 63.38303406 78.80192871 62.54373169 78.81188965 C58.91754695 78.76441912 56.84780477 78.60338888 53.91760254 76.37672424 C51.39720707 72.84149408 51.94979368 70.54334856 52.42340088 66.28088379 C53.42379761 64.55982971 53.42379761 64.55982971 55.42340088 63.28088379 C58.30443298 62.98136891 60.97205791 62.86403208 63.85455322 62.88024902 C65.14526482 62.86978043 65.14526482 62.86978043 66.46205139 62.85910034 C69.31124593 62.83907835 72.16007964 62.83962361 75.00933838 62.83947754 C76.98848451 62.82770924 78.96762174 62.81434637 80.94674683 62.79945374 C86.16281448 62.76321136 91.37880338 62.74305146 96.5949707 62.72790527 C104.93730304 62.70310954 113.27946116 62.66341451 121.62163162 62.60600471 C124.53593252 62.58967869 127.4500694 62.58589781 130.3644104 62.58299255 C132.15409629 62.57321448 133.94377962 62.56295091 135.73345947 62.55212402 C136.54298569 62.55467697 137.3525119 62.55722992 138.18656921 62.55986023 C142.3225415 62.52227636 145.79550921 62.3838175 149.42340088 60.28088379 C151.38655892 54.39140967 150.73045484 47.64644628 150.77349854 41.46618652 C150.79008438 39.71930646 150.81740918 37.97249498 150.85552979 36.22595215 C150.91026651 33.70354128 150.93216208 31.18271452 150.94683838 28.65979004 C150.98084244 27.49087975 150.98084244 27.49087975 151.01553345 26.2983551 C151.00119577 22.6220067 150.88975078 20.76037342 148.27832031 18.07536411 C144.92413766 15.96706827 143.09560221 15.7763051 139.16119385 15.76622009 C137.89942322 15.75349564 136.63765259 15.74077118 135.33764648 15.72766113 C133.94695857 15.733843 132.55627248 15.74044899 131.16558838 15.74743652 C129.69514094 15.74037616 128.22470077 15.73163064 126.75427246 15.72132874 C122.76663745 15.69883919 118.77939942 15.70177309 114.79172516 15.71065021 C111.46157833 15.71576209 108.13150597 15.70846602 104.80136681 15.70117813 C96.94549417 15.68418093 89.08981579 15.68774359 81.23394775 15.70446777 C73.13069272 15.72139555 65.02797613 15.70554545 56.92477989 15.67324489 C49.96495771 15.64655355 43.00530318 15.63927153 36.04543495 15.64775997 C31.88970614 15.65268978 27.73430143 15.65047076 23.57861328 15.62997246 C19.67136622 15.61162179 15.76489426 15.6175655 11.8576889 15.64217186 C10.4246128 15.64718154 8.99147771 15.64368573 7.55844879 15.63102341 C5.60088663 15.61509574 3.64313643 15.63306317 1.68560791 15.6526947 C0.59055939 15.65328101 -0.50448914 15.65386732 -1.63272095 15.6544714 C-5.57825312 16.49402049 -7.0901137 18.16988891 -9.57659912 21.28088379 C-10.0532579 24.07728195 -10.23531318 26.248443 -10.17034912 29.03088379 C-10.17040955 30.13448242 -10.17040955 30.13448242 -10.17047119 31.26037598 C-10.16512844 32.81026793 -10.14759852 34.36016034 -10.11859131 35.90979004 C-10.07672247 38.27391894 -10.07752682 40.6351964 -10.08441162 42.99963379 C-10.07391803 44.51007013 -10.060979 46.02049187 -10.04534912 47.53088379 C-10.04514771 48.23310059 -10.04494629 48.93531738 -10.04473877 49.65881348 C-9.94023084 54.02115952 -9.25926171 56.81775281 -6.57659912 60.28088379 C-2.92787742 62.71336492 -0.20306596 62.56019503 4.01324463 62.55432129 C5.53473638 62.57460854 7.05622071 62.59545929 8.57769775 62.61682129 C10.97188597 62.63942883 13.36578071 62.65589571 15.7600708 62.66174316 C18.07416566 62.67126913 20.38694482 62.70504171 22.70074463 62.74182129 C23.41439682 62.73677582 24.12804901 62.73173035 24.86332703 62.72653198 C28.27095492 62.79391655 30.11928161 63.05099692 32.87091064 65.13098145 C34.42340088 67.28088379 34.42340088 67.28088379 34.98590088 70.21838379 C34.22073201 74.38430318 32.71187731 75.6564764 29.42340088 78.28088379 C26.64061901 78.79467181 24.47729608 79.0077209 21.70074463 78.98010254 C20.95941788 78.98725784 20.21809113 78.99441315 19.45429993 79.00178528 C17.88680213 79.0095495 16.31919588 79.00457688 14.75177002 78.9876709 C12.39079783 78.96862497 10.03587228 79.0076436 7.675354 79.05236816 C-1.87351069 79.10597737 -9.55510383 78.03661313 -17.57659912 72.28088379 C-24.09949763 65.56232161 -25.8884325 59.2665764 -25.91253662 50.10510254 C-25.92252182 48.77911797 -25.92252182 48.77911797 -25.93270874 47.42634583 C-25.94281221 45.55960157 -25.94752647 43.69282137 -25.94720459 41.8260498 C-25.95156878 38.98811438 -25.98788717 36.15174657 -26.02581787 33.31408691 C-26.03168854 31.49443073 -26.03565626 29.67476722 -26.03753662 27.85510254 C-26.05190765 27.01525314 -26.06627869 26.17540375 -26.08108521 25.31010437 C-26.02737353 18.291061 -24.05586057 13.12076508 -19.42816162 7.81994629 C-18.693396 7.18830566 -17.95863037 6.55666504 -17.20159912 5.90588379 C-16.47198975 5.25877441 -15.74238037 4.61166504 -14.99066162 3.94494629 C-10.26167253 0.68515769 -5.65158438 0.02970558 0 0 Z " fill="#020404" transform="translate(306.57659912109375,199.7191162109375)"/>
<path d="M0 0 C0.66 0.33 1.32 0.66 2 1 C1.67 94.06 1.34 187.12 1 283 C24.43 283 47.86 283 72 283 C72 283.33 72 283.66 72 284 C41.31 284 10.62 284 -21 284 C-21.13237707 250.82698559 -21.24312154 217.65422837 -21.30639198 184.48102914 C-21.31389584 180.56092 -21.32166181 176.64081143 -21.32958984 172.72070312 C-21.33116371 171.94030978 -21.33273757 171.15991643 -21.33435912 170.35587481 C-21.36043726 157.73476801 -21.40772818 145.1138259 -21.46291678 132.49281666 C-21.51910908 119.53378678 -21.55237022 106.5748429 -21.56453097 93.61569619 C-21.57274657 85.62492519 -21.59865452 77.63461973 -21.6474988 69.6439921 C-21.68308959 63.50739728 -21.6867102 57.37115428 -21.67864609 51.23447037 C-21.68029265 48.72389238 -21.69217298 46.21329626 -21.71523285 43.70282364 C-21.94273077 17.65120495 -21.94273077 17.65120495 -13.2240963 8.04287338 C-9.56906944 4.51635427 -4.82647092 1.60882364 0 0 Z " fill="#FDC377" transform="translate(136,17)"/>
<path d="M0 0 C2.08738686 0.04191344 4.17153938 0.04105209 6.25927734 0.03417969 C21.8534512 0.10678812 21.8534512 0.10678812 27.13208008 4.95800781 C31.44447038 9.84854938 31.76656829 14.04139738 31.82958984 20.28027344 C31.83766159 21.03866013 31.84573334 21.79704681 31.85404968 22.57841492 C31.86787041 24.18303149 31.87860156 25.78767721 31.88647461 27.39233398 C31.8979934 29.02848967 31.91844388 30.66460781 31.94799805 32.30053711 C31.99078362 34.66904138 32.00685804 37.03643014 32.01708984 39.40527344 C32.03459793 40.13047684 32.05210602 40.85568024 32.07014465 41.6028595 C32.04839822 46.73617894 30.82957359 49.59888322 27.59130859 53.54199219 C22.10019638 57.68834223 18.0231762 58.70793663 11.29052734 58.78027344 C10.21953545 58.79238106 10.21953545 58.79238106 9.12690735 58.80473328 C7.61644909 58.81855099 6.10595991 58.82928348 4.59545898 58.8371582 C3.05630294 58.8486747 1.51718674 58.86912166 -0.02172852 58.89868164 C-2.25125127 58.94149728 -4.47958908 58.9575454 -6.70947266 58.96777344 C-7.3909285 58.98528152 -8.07238434 59.00278961 -8.77449036 59.02082825 C-13.77936772 58.99832092 -16.54095547 57.64036458 -20.40869141 54.54199219 C-25.02371231 49.4280501 -25.57940041 45.49308704 -25.64697266 38.80371094 C-25.6550444 38.04532425 -25.66311615 37.28693756 -25.6714325 36.50556946 C-25.68525322 34.90095289 -25.69598437 33.29630717 -25.70385742 31.69165039 C-25.71537622 30.0554947 -25.73582669 28.41937656 -25.76538086 26.78344727 C-25.80816643 24.41494299 -25.82424085 22.04755424 -25.83447266 19.67871094 C-25.85198074 18.95350754 -25.86948883 18.22830414 -25.88752747 17.48112488 C-25.86219004 11.500141 -23.8799282 8.11607115 -19.81298828 3.87988281 C-13.71812503 -0.39287764 -7.17727794 -0.1518822 0 0 Z " fill="#020302" transform="translate(306.40869140625,421.4580078125)"/>
<path d="M0 0 C2.23300817 0.02680975 4.46099279 0.00018069 6.69384766 -0.03173828 C14.35258577 -0.0495539 20.85332747 0.14037805 26.73681641 5.65185547 C31.0592897 10.25319801 30.91150058 15.2059486 30.97509766 21.26904297 C30.9831694 22.00381866 30.99124115 22.73859436 30.9995575 23.49563599 C31.01335651 25.04719715 31.02409728 26.59878814 31.03198242 28.15039062 C31.04351296 29.73121077 31.063982 31.31199165 31.09350586 32.89257812 C31.13629455 35.18500025 31.15236416 37.47627054 31.16259766 39.76904297 C31.18010574 40.46923553 31.19761383 41.1694281 31.21565247 41.89083862 C31.19348041 46.94843362 29.91093648 49.76358523 26.73681641 53.65185547 C19.40898904 59.18511287 12.97024956 58.86888843 4.16821289 58.89208984 C1.94265079 58.90177568 -0.28197951 58.93280079 -2.50732422 58.96435547 C-3.93244897 58.97088819 -5.3575803 58.9761376 -6.78271484 58.97998047 C-8.07282471 58.98932617 -9.36293457 58.99867188 -10.69213867 59.00830078 C-15.1874505 58.55959939 -18.55427134 57.21057828 -21.90771484 54.15185547 C-25.91720637 49.00254194 -26.43735938 45.25975251 -26.50146484 38.91357422 C-26.50953659 38.15518753 -26.51760834 37.39680084 -26.52592468 36.61543274 C-26.53974541 35.01081617 -26.55047656 33.40617045 -26.55834961 31.80151367 C-26.5698684 30.16535798 -26.59031888 28.52923984 -26.61987305 26.89331055 C-26.66265862 24.52480628 -26.67873304 22.15741752 -26.68896484 19.78857422 C-26.70647293 19.06337082 -26.72398102 18.33816742 -26.74201965 17.59098816 C-26.7166878 11.61131947 -24.72088671 8.26258829 -20.70263672 3.99414062 C-14.43067758 -0.4623486 -7.38067235 -0.10550774 0 0 Z " fill="#020302" transform="translate(307.26318359375,357.34814453125)"/>
<path d="M0 0 C0.68755371 -0.00287018 1.37510742 -0.00574036 2.08349609 -0.00869751 C3.52897979 -0.01072791 4.97449162 -0.00527001 6.41992188 0.00732422 C8.61912083 0.02339454 10.81648248 0.00744268 13.015625 -0.01171875 C14.42708735 -0.00973613 15.83854856 -0.00589207 17.25 0 C19.15652344 0.00507568 19.15652344 0.00507568 21.1015625 0.01025391 C27.51227255 0.71653363 31.44104838 3.63338149 35.625 8.3984375 C38.03204709 12.03556611 37.96363133 15.72025978 37.99609375 19.9453125 C38.00963646 21.04036102 38.00963646 21.04036102 38.02345276 22.15753174 C38.03793408 23.70068275 38.04683674 25.24389486 38.05053711 26.78710938 C38.06239332 29.12737994 38.11155701 31.46497621 38.16210938 33.8046875 C38.31435952 47.26251922 38.31435952 47.26251922 34.38696289 52.86425781 C29.12185978 57.44869843 24.63586058 59.01104991 17.71484375 58.9296875 C16.9843129 58.9335144 16.25378204 58.93734131 15.50111389 58.94128418 C13.96744394 58.94398876 12.43372671 58.93673 10.90014648 58.91992188 C8.56453997 58.89845625 6.23199759 58.91978508 3.89648438 58.9453125 C2.39843078 58.94266957 0.90037907 58.93754529 -0.59765625 58.9296875 C-1.63382835 58.94183289 -1.63382835 58.94183289 -2.69093323 58.95422363 C-8.83891368 58.83635443 -12.23723492 56.30509284 -16.6875 52.3359375 C-21.18598387 47.17101158 -19.71876252 38.27746903 -19.7800293 31.74853516 C-19.80158954 30.02209445 -19.83566964 28.29576248 -19.88256836 26.56982422 C-19.94982784 24.06949503 -19.97706719 21.57142065 -19.99609375 19.0703125 C-20.02392441 18.30652283 -20.05175507 17.54273315 -20.08042908 16.75579834 C-20.06045778 11.49714826 -18.73878405 8.62268011 -15.05873108 4.849823 C-10.29916453 0.74705032 -6.1656851 0.01641473 0 0 Z " fill="#020403" transform="translate(368.375,421.6015625)"/>
<path d="M0 0 C2.17756161 0.00849662 4.35248292 -0.02026501 6.52978516 -0.05200195 C14.80425237 -0.09913334 21.56349912 0.03601028 27.87451172 5.89355469 C32.73597538 11.92973091 32.06860339 19.78447783 31.96679688 27.13647461 C31.9399901 29.44185713 31.96661351 31.74237353 31.99853516 34.04760742 C32.03522443 47.19875179 32.03522443 47.19875179 28.0703125 52.90307617 C22.82859021 57.51054278 18.31649691 59.05854795 11.40478516 58.97729492 C10.6742543 58.98112183 9.94372345 58.98494873 9.1910553 58.9888916 C7.65738535 58.99159618 6.12366812 58.98433743 4.59008789 58.9675293 C2.25448138 58.94606367 -0.078061 58.9673925 -2.41357422 58.99291992 C-3.91162782 58.99027699 -5.40967952 58.98515271 -6.90771484 58.97729492 C-7.94388695 58.98944031 -7.94388695 58.98944031 -9.00099182 59.00183105 C-14.00285255 58.90593528 -16.81585599 57.54737657 -20.68505859 54.44604492 C-26.85584111 47.44137287 -26.00698127 40.77070633 -26.09008789 31.87158203 C-26.11162631 30.13830592 -26.14568028 28.40513736 -26.19262695 26.67236328 C-26.25990272 24.16544333 -26.28713175 21.66077361 -26.30615234 19.15307617 C-26.333983 18.38614944 -26.36181366 17.61922272 -26.39048767 16.82905579 C-26.37056219 11.55929171 -25.05834072 8.67715911 -21.36906433 4.89605713 C-14.96365573 -0.6193164 -7.97000706 -0.04745118 0 0 Z " fill="#020403" transform="translate(374.68505859375,357.553955078125)"/>
<path d="M0 0 C0.75742996 -0.00807175 1.51485992 -0.01614349 2.29524231 -0.02445984 C3.90163892 -0.03830177 5.50806495 -0.04902344 7.11450195 -0.05688477 C9.55543022 -0.07403188 11.99498032 -0.11790605 14.43554688 -0.16210938 C15.99868799 -0.17224252 17.56184059 -0.18075668 19.125 -0.1875 C19.84817917 -0.20500809 20.57135834 -0.22251617 21.31645203 -0.24055481 C26.7779118 -0.21752339 29.94968077 1.00978191 34.39453125 4.23828125 C38.37842442 8.7649733 38.97960774 12.64533405 38.890625 18.48828125 C38.89208023 19.26461914 38.89353546 20.04095703 38.89503479 20.84082031 C38.89338216 22.47464773 38.88189231 24.10849175 38.86108398 25.7421875 C38.83211429 28.23114716 38.84049035 30.71797509 38.85351562 33.20703125 C38.84727748 34.80079151 38.83888594 36.39454511 38.828125 37.98828125 C38.83106064 38.72594727 38.83399628 39.46361328 38.83702087 40.22363281 C38.75132517 44.95917922 37.8886904 48.2135389 35.39453125 52.23828125 C30.28386968 56.9656432 26.16776849 57.41055168 19.4375 57.4765625 C18.65691727 57.48463425 17.87633453 57.49270599 17.07209778 57.50102234 C15.42040211 57.51484445 13.7686781 57.52557498 12.11694336 57.53344727 C9.6014949 57.55064816 7.08736548 57.59454732 4.57226562 57.63867188 C2.96485338 57.64880067 1.35743 57.65731619 -0.25 57.6640625 C-1.37061577 57.69032463 -1.37061577 57.69032463 -2.51387024 57.71711731 C-7.73312491 57.69562976 -10.69737147 56.69236347 -14.60546875 53.23828125 C-18.23384103 48.21522501 -19.20746508 44.31846547 -19.13671875 38.109375 C-19.14054565 37.3566481 -19.14437256 36.6039212 -19.14831543 35.8283844 C-19.15102077 34.24763642 -19.14375664 32.66684262 -19.12695312 31.08618164 C-19.10549011 28.67817821 -19.12681384 26.27314722 -19.15234375 23.86523438 C-19.14970081 22.32160806 -19.14457653 20.77798358 -19.13671875 19.234375 C-19.14481567 18.52171982 -19.1529126 17.80906464 -19.16125488 17.07481384 C-19.06695856 12.00665001 -17.76167887 9.15569925 -14.60546875 5.23828125 C-9.58697601 0.81722813 -6.54943905 0.06597606 0 0 Z " fill="#020201" transform="translate(435.60546875,290.76171875)"/>
<path d="M0 0 C0.75980164 -0.00807175 1.51960327 -0.01614349 2.3024292 -0.02445984 C3.91302205 -0.03830013 5.52364422 -0.04902254 7.13427734 -0.05688477 C9.5861861 -0.07405635 12.0367316 -0.11793509 14.48828125 -0.16210938 C16.0546776 -0.17224031 17.62108541 -0.18075516 19.1875 -0.1875 C19.91584045 -0.20500809 20.64418091 -0.22251617 21.39459229 -0.24055481 C26.54162181 -0.21885173 29.39017842 1.01708028 33.359375 4.23828125 C37.70974807 9.17654258 38.53044668 12.14551359 38.59765625 18.58984375 C38.605728 19.32270599 38.61379974 20.05556824 38.62211609 20.81063843 C38.63595889 22.36575964 38.64668018 23.92091126 38.65454102 25.47607422 C38.67165957 27.83361228 38.71552867 30.18971265 38.75976562 32.546875 C38.919517 47.27105181 38.919517 47.27105181 34.359375 53.23828125 C29.1144036 56.85991622 25.35086751 57.84755611 19.046875 57.8046875 C18.27432373 57.81088608 17.50177246 57.81708466 16.70581055 57.82347107 C15.08220674 57.83053405 13.45852997 57.82745711 11.83496094 57.81469727 C9.36516949 57.80081382 6.89916082 57.83496805 4.4296875 57.87304688 C2.84374908 57.87399813 1.25780597 57.87213888 -0.328125 57.8671875 C-1.05749268 57.88044571 -1.78686035 57.89370392 -2.53833008 57.90736389 C-8.09174002 57.8075946 -11.69083874 56.17283438 -15.640625 52.23828125 C-18.72057949 47.70710731 -19.09614104 43.55231071 -19.07421875 38.20703125 C-19.0794606 37.4528894 -19.08470245 36.69874756 -19.09010315 35.92175293 C-19.09649649 34.33505479 -19.09522132 32.74830907 -19.08666992 31.16162109 C-19.07814836 28.74490482 -19.10697303 26.33054647 -19.13867188 23.9140625 C-19.14028397 22.36588612 -19.13970619 20.81770559 -19.13671875 19.26953125 C-19.14795273 18.55373901 -19.15918671 17.83794678 -19.17076111 17.10046387 C-19.10067218 12.01312891 -17.81240309 9.16769936 -14.640625 5.23828125 C-9.61121087 0.8076069 -6.56382939 0.06583936 0 0 Z " fill="#000101" transform="translate(299.640625,290.76171875)"/>
<path d="M0 0 C1.08868126 -0.00929787 1.08868126 -0.00929787 2.19935608 -0.01878357 C3.72460601 -0.02584344 5.24993363 -0.02277508 6.77514648 -0.01000977 C9.08919254 0.00385554 11.39918514 -0.03026054 13.71289062 -0.06835938 C27.50313877 -0.14638611 27.50313877 -0.14638611 32.71484375 4.07055664 C39.14926658 10.72996689 38.75561439 17.51234467 38.62670898 26.38183594 C38.59772387 28.56132167 38.60612591 30.73837229 38.61914062 32.91796875 C38.55436405 47.49280158 38.55436405 47.49280158 33.7052002 53.31259155 C29.98513362 56.92034439 27.04642761 58.25949871 21.87974548 58.3487854 C20.74817772 58.32115616 20.74817772 58.32115616 19.59375 58.29296875 C18.79663101 58.29396576 17.99951202 58.29496277 17.17823792 58.29598999 C15.50324463 58.29133498 13.82823388 58.27203362 12.15356445 58.23876953 C9.60044487 58.19145793 7.05149555 58.19767538 4.49804688 58.2109375 C2.86325655 58.19978495 1.22848366 58.18556576 -0.40625 58.16796875 C-1.16265274 58.16979156 -1.91905548 58.17161438 -2.69837952 58.17349243 C-7.82216873 58.03739487 -10.82987294 57.0086604 -14.83984375 53.56640625 C-18.95371312 48.78690663 -19.43539174 45.12919118 -19.37109375 39.09765625 C-19.37492065 38.29912231 -19.37874756 37.50058838 -19.38269043 36.67785645 C-19.38540086 34.99697603 -19.37810063 33.31605282 -19.36132812 31.63525391 C-19.33990375 29.07358079 -19.36115696 26.51471169 -19.38671875 23.953125 C-19.38407532 22.31379594 -19.37895001 20.67446862 -19.37109375 19.03515625 C-19.37919067 18.27561646 -19.3872876 17.51607666 -19.39562988 16.73352051 C-19.30573046 11.59316937 -18.35826137 8.54784877 -14.83984375 4.56640625 C-10.24026219 0.89016279 -5.85043665 -0.04251739 0 0 Z " fill="#010201" transform="translate(367.83984375,290.43359375)"/>
<path d="M0 0 C1.54559097 -0.01073296 1.54559097 -0.01073296 3.12240601 -0.02168274 C4.25233475 -0.02437164 5.38226349 -0.02706055 6.5464325 -0.02983093 C7.736922 -0.03640213 8.9274115 -0.04297333 10.15397644 -0.04974365 C14.10209003 -0.06948954 18.05019034 -0.08114326 21.99833679 -0.09111023 C23.35870573 -0.09515862 24.71907446 -0.09927557 26.07944298 -0.10346031 C32.47065492 -0.12250604 38.86185535 -0.13673872 45.2530902 -0.14507228 C52.6256716 -0.15484475 59.99795277 -0.18116675 67.37042838 -0.22157317 C73.07244885 -0.25174983 78.77438333 -0.26654258 84.47648209 -0.26985329 C87.88054781 -0.27220192 91.28429256 -0.2811373 94.68827248 -0.30631447 C98.4875913 -0.33060171 102.28612268 -0.32975947 106.085495 -0.32279968 C107.77127907 -0.34201477 107.77127907 -0.34201477 109.49111938 -0.36161804 C115.61766389 -0.32066751 119.38596558 -0.03473145 124.01005554 4.14717102 C125.86860836 7.86427665 125.58913994 12.09994383 125.01005554 16.14717102 C122.48329516 19.49342126 120.97072012 20.82694949 117.01005554 22.14717102 C115.34896407 22.24728601 113.68418467 22.29072776 112.02011108 22.30107117 C110.9897171 22.30967163 109.95932312 22.31827209 108.89770508 22.32713318 C107.76777634 22.33139313 106.6378476 22.33565308 105.47367859 22.34004211 C103.68794434 22.35230835 103.68794434 22.35230835 101.86613464 22.36482239 C97.91802814 22.3896793 93.96992915 22.40634524 90.02177429 22.42060852 C88.6614055 22.42596954 87.30103677 22.43134705 85.94066811 22.43674088 C80.28142433 22.4583632 74.62218336 22.47709952 68.96290874 22.48836327 C60.85828001 22.50460161 52.75413071 22.53778316 44.6496827 22.59476411 C38.94766476 22.63348471 33.24577494 22.65299835 27.54362899 22.65828383 C24.13948075 22.66193419 20.73584429 22.67392046 17.33183861 22.70638657 C13.53239161 22.73792395 9.73415904 22.73809122 5.93461609 22.73066711 C4.81076004 22.74707245 3.68690399 22.76347778 2.5289917 22.78038025 C-5.9774565 22.71226599 -5.9774565 22.71226599 -9.67272949 19.73570251 C-13.11587899 15.88940381 -13.38589549 13.43678879 -13.34541321 8.40888977 C-12.77666623 4.79015903 -10.83828833 3.26686879 -7.98994446 1.14717102 C-5.03050095 0.16068985 -3.08729466 0.0147169 0 0 Z " fill="#FEA632" transform="translate(90.98994445800781,316.8528289794922)"/>
<path d="M0 0 C3.78345012 0.94586253 5.21642245 2.4932365 7.5 5.625 C7.91518709 8.43270268 7.74244863 10.76410614 7.5 13.625 C8.56927734 13.77195313 8.56927734 13.77195313 9.66015625 13.921875 C15.72757141 14.86914305 20.65505502 15.72797904 25.5 19.625 C26.6875 23.0625 26.6875 23.0625 26.5 26.625 C24.5625 29.5625 24.5625 29.5625 22.5 31.625 C18.99849919 31.1873124 16.02500694 30.46672984 12.8125 29.0625 C6.63027194 26.6583002 -0.35697395 26.49407412 -6.5625 28.9375 C-9.70787191 30.45454504 -9.70787191 30.45454504 -11.5 33.625 C-11.89059819 35.73556475 -11.89059819 35.73556475 -11.875 38 C-11.91753906 39.12535156 -11.91753906 39.12535156 -11.9609375 40.2734375 C-11.30033202 43.64364514 -9.91193034 45.20120771 -7.5 47.625 C-4.45124523 49.29632825 -4.45124523 49.29632825 -1 50.5625 C0.25227697 51.07182835 1.50356416 51.58359629 2.75390625 52.09765625 C3.69387451 52.47881592 3.69387451 52.47881592 4.65283203 52.86767578 C14.67561565 56.97693758 22.1074068 60.98417926 27.15234375 70.859375 C28.66427761 75.08402497 29.04018023 78.49457067 29 82.9375 C28.99355469 83.68370605 28.98710937 84.42991211 28.98046875 85.19873047 C28.69738646 93.78245586 25.86957635 99.65021221 19.6875 105.625 C15.7953503 108.77578785 12.40787004 109.83623517 7.5 110.625 C7.6546875 112.4503125 7.6546875 112.4503125 7.8125 114.3125 C7.80621859 117.84893408 7.54353719 118.56353572 5.375 121.625 C2.5 123.625 2.5 123.625 -0.5625 124.25 C-3.5 123.625 -3.5 123.625 -5.875 121.625 C-8.04045668 117.62723382 -7.80504227 115.12437346 -7.5 110.625 C-8.06847656 110.52703125 -8.63695312 110.4290625 -9.22265625 110.328125 C-16.08652219 108.99889554 -21.49793471 107.001119 -26.4375 101.8125 C-28.90793731 97.99455143 -29.24402127 96.08912763 -28.5 91.625 C-26.8125 89.125 -26.8125 89.125 -24.5 87.625 C-20.40484444 87.95128069 -18.48850293 89.20493795 -15.625 92.0625 C-10.52872026 96.71977437 -5.50906749 98.13499404 1.44140625 97.9453125 C5.15138581 97.36804813 8.51406922 95.89598961 11.5 93.625 C13.70037201 90.39921191 13.79795022 87.53349081 13.8125 83.6875 C13.82925781 82.66785156 13.84601563 81.64820313 13.86328125 80.59765625 C13.43832315 77.12031092 12.66590654 75.37189005 10.5 72.625 C8.00008852 70.91497084 8.00008852 70.91497084 5.0625 69.625 C3.99773437 69.12097656 2.93296875 68.61695313 1.8359375 68.09765625 C-1.35761571 66.68785583 -4.57347995 65.36381914 -7.8125 64.0625 C-16.28234474 60.56841261 -21.30435401 56.91226769 -25.5 48.625 C-27.65364435 42.16406695 -27.81319976 33.48311884 -25 27.1875 C-21.66715161 21.71126501 -16.72825702 16.99407354 -10.5 15.1875 C-9.51 15.001875 -8.52 14.81625 -7.5 14.625 C-7.55800781 14.03332031 -7.61601562 13.44164062 -7.67578125 12.83203125 C-7.92965446 8.38562337 -7.97736465 6.29331051 -5.3125 2.5625 C-2.5 0.625 -2.5 0.625 0 0 Z " fill="#050403" transform="translate(191.5,166.375)"/>
<path d="M0 0 C1.19107361 -0.00569504 2.38214722 -0.01139008 3.60931396 -0.01725769 C6.85976396 -0.02643794 10.10868986 -0.00893453 13.35896802 0.02160144 C16.76875073 0.04806718 20.17849914 0.04266822 23.58836365 0.04151917 C29.31221217 0.04432358 35.03558183 0.07030033 40.75927734 0.11132812 C47.36740356 0.15852191 53.97500614 0.17432135 60.58328873 0.17212147 C67.63362179 0.17009177 74.68375428 0.19093069 81.73402667 0.21846128 C83.75935875 0.2248407 85.78465826 0.2269828 87.80999947 0.22817802 C91.58974457 0.23468393 95.36883348 0.26094824 99.1484375 0.29296875 C100.26600937 0.29160919 101.38358124 0.29024963 102.53501892 0.28884888 C108.05489819 0.35721443 112.32018416 0.4625805 117.00952148 3.72875977 C119.82677382 7.95463826 119.80910532 11.76500665 119.00952148 16.72875977 C116.81929231 19.55300265 115.17934942 21.1438458 112.00952148 22.72875977 C109.36282092 22.84272302 106.74183005 22.89659409 104.09423828 22.90576172 C103.27602097 22.91233292 102.45780365 22.91890411 101.61479187 22.92567444 C98.89610706 22.94544322 96.17747787 22.95708443 93.45874023 22.96704102 C92.06262984 22.97315431 92.06262984 22.97315431 90.6383152 22.9793911 C85.70207566 23.00027747 80.76586405 23.01456215 75.82958984 23.02392578 C70.75706851 23.03493259 65.68499287 23.06925812 60.61262798 23.10909748 C56.6926448 23.13540619 52.77276487 23.1436307 48.85270119 23.14720726 C46.98501423 23.15204475 45.11733098 23.16357657 43.24973106 23.18224525 C33.47679 23.27378081 24.90225848 23.09176176 15.63801575 19.68644714 C10.96397877 17.98346979 6.56501327 17.57657229 1.61499023 17.41235352 C-0.18808594 17.34951172 -0.18808594 17.34951172 -2.02758789 17.28540039 C-3.2734668 17.24608398 -4.5193457 17.20676758 -5.80297852 17.16625977 C-7.06819336 17.12307617 -8.3334082 17.07989258 -9.63696289 17.03540039 C-12.7546974 16.92951507 -15.87250887 16.82743572 -18.99047852 16.72875977 C-19.18180479 15.19207576 -19.31635388 13.64828021 -19.42797852 12.10375977 C-19.50918945 11.24524414 -19.59040039 10.38672852 -19.67407227 9.50219727 C-18.76418932 5.81067216 -17.15932023 4.3888086 -14.26117134 2.01573372 C-9.80372472 -0.51063957 -5.00028732 -0.07556598 0 0 Z " fill="#FD9710" transform="translate(96.990478515625,354.271240234375)"/>
<path d="M0 0 C1.53333984 -0.00386719 1.53333984 -0.00386719 3.09765625 -0.0078125 C4.16886719 -0.00007813 5.24007813 0.00765625 6.34375 0.015625 C7.95056641 0.00402344 7.95056641 0.00402344 9.58984375 -0.0078125 C10.61207031 -0.00523437 11.63429688 -0.00265625 12.6875 0 C13.62787109 0.00225586 14.56824219 0.00451172 15.53710938 0.00683594 C17.84375 0.265625 17.84375 0.265625 19.84375 2.265625 C20.05274765 4.95445149 20.13739873 7.54114095 20.13427734 10.23193359 C20.14435318 11.46631416 20.14435318 11.46631416 20.15463257 12.72563171 C20.17368261 15.45516951 20.17754037 18.1844623 20.1796875 20.9140625 C20.18611094 22.80734357 20.19283895 24.70062364 20.19985962 26.59390259 C20.21185018 30.56685691 20.21553866 34.53972417 20.21435547 38.51269531 C20.21415226 43.60631104 20.24144793 48.6993689 20.27589989 53.7928524 C20.2981274 57.70476856 20.30219427 61.61654964 20.30113602 65.52852249 C20.30349849 67.40642849 20.31235822 69.28433786 20.32780075 71.16218185 C20.34737566 73.78869513 20.34165644 76.41399494 20.32958984 79.04052734 C20.34082886 79.81781693 20.35206787 80.59510651 20.36364746 81.39595032 C20.3222079 84.94176853 20.13114802 86.88977993 17.94680786 89.74635315 C14.31108385 92.37283968 10.6869134 91.88380658 6.34375 91.828125 C5.06177734 91.86389648 5.06177734 91.86389648 3.75390625 91.90039062 C2.92761719 91.89845703 2.10132813 91.89652344 1.25 91.89453125 C0.12561523 91.8956189 0.12561523 91.8956189 -1.02148438 91.89672852 C-4.34314638 90.91474129 -5.31439837 89.15517994 -7.15625 86.265625 C-7.53344799 83.38461039 -7.68435777 80.89335869 -7.64208984 78.01879883 C-7.64588654 77.20198135 -7.64968323 76.38516388 -7.65359497 75.54359436 C-7.66098442 72.85288689 -7.63964649 70.16326714 -7.6171875 67.47265625 C-7.61480267 65.60129422 -7.61389784 63.72992976 -7.6144104 61.85856628 C-7.61128549 57.94209752 -7.59473997 54.02599564 -7.56787109 50.10961914 C-7.53382119 45.08216178 -7.52624465 40.05510606 -7.52776146 35.02754688 C-7.52721857 31.1663172 -7.51626564 27.30517582 -7.50175858 23.44397545 C-7.4953829 21.58956254 -7.49144989 19.73513961 -7.48997116 17.88071632 C-7.48565027 15.29505853 -7.46817787 12.70983298 -7.44677734 10.12426758 C-7.44768372 9.35385132 -7.44859009 8.58343506 -7.44952393 7.78967285 C-7.37287342 1.47867579 -6.27439023 0.01505166 0 0 Z " fill="#FE9710" transform="translate(439.15625,373.734375)"/>
<path d="M0 0 C1.10619186 -0.00571014 2.21238373 -0.01142029 3.35209656 -0.01730347 C4.57134827 -0.01842133 5.79059998 -0.01953918 7.04679871 -0.02069092 C8.96639656 -0.02813828 8.96639656 -0.02813828 10.92477417 -0.03573608 C14.4414077 -0.04886849 17.95802214 -0.05530681 21.47467637 -0.05974674 C23.67145117 -0.06267646 25.86822074 -0.0667811 28.0649929 -0.07125092 C34.93728608 -0.08492881 41.8095673 -0.09459371 48.68187314 -0.09845281 C56.61643921 -0.10293275 64.55083295 -0.12047633 72.48534662 -0.1494534 C78.61705275 -0.17106951 84.74871041 -0.18115707 90.88045424 -0.18249393 C94.54321169 -0.18354212 98.2058072 -0.18945272 101.86852455 -0.20731354 C105.95539936 -0.22685443 110.04191362 -0.22250556 114.12882996 -0.21600342 C115.94859848 -0.22982559 115.94859848 -0.22982559 117.80513 -0.243927 C118.91978134 -0.23835785 120.03443268 -0.2327887 121.18286133 -0.22705078 C122.14906812 -0.22851734 123.11527491 -0.2299839 124.11076069 -0.2314949 C127.29953767 0.21251817 129.18830259 1.2625106 131.78190613 3.14044189 C133.20232433 5.98127831 133.09642885 7.99521467 132.78190613 11.14044189 C130.91480702 13.44319746 129.42542872 14.8186806 126.78190613 16.14044189 C125.04482162 16.2420948 123.30385148 16.27990779 121.56381226 16.28761292 C120.45762039 16.29476822 119.35142853 16.30192352 118.2117157 16.30929565 C116.99246399 16.31198456 115.77321228 16.31467346 114.51701355 16.31744385 C113.23728165 16.32401505 111.95754974 16.33058624 110.63903809 16.33735657 C107.1224103 16.35477051 103.60579611 16.36531939 100.08913589 16.3735621 C97.8923613 16.37871146 95.69559095 16.38478722 93.49881935 16.39107323 C86.62652947 16.41012647 79.75425034 16.42435728 72.88193911 16.4326852 C64.94732224 16.44245897 57.01298424 16.46878131 49.07846564 16.50918609 C42.94676068 16.53933959 36.81513569 16.55415333 30.68335801 16.55746621 C27.02054212 16.5598176 23.3580241 16.56878902 19.6952877 16.59392738 C15.60834047 16.62152381 11.52201674 16.61737938 7.4349823 16.6104126 C6.22180328 16.62322266 5.00862427 16.63603271 3.75868225 16.64923096 C-4.41827097 16.59829192 -4.41827097 16.59829192 -8.44250488 14.29466248 C-10.76830858 11.47289785 -11.29275809 9.79898841 -11.21809387 6.14044189 C-7.9380779 1.05076194 -5.86769195 0.01808605 0 0 Z " fill="#0E0C09" transform="translate(221.2180938720703,139.85955810546875)"/>
<path d="M0 0 C1.16784027 -0.01134979 2.33568054 -0.02269958 3.53890991 -0.03439331 C5.4551844 -0.02999741 5.4551844 -0.02999741 7.41017151 -0.0255127 C8.77209672 -0.03285383 10.13401571 -0.04144019 11.4959259 -0.05117798 C15.19224296 -0.07339789 18.88833712 -0.07632447 22.58471179 -0.07443047 C25.67123903 -0.07431079 28.757719 -0.08287366 31.8442331 -0.09120798 C39.12617302 -0.1104436 46.4079983 -0.11332525 53.68995667 -0.10656738 C61.20072577 -0.09992542 68.71100391 -0.12279637 76.22167343 -0.15988111 C82.6719138 -0.19057353 89.12199619 -0.20193869 95.57230812 -0.1980443 C99.42403167 -0.19597637 103.27537314 -0.20146223 107.12702751 -0.22593689 C110.74944481 -0.24819459 114.3710636 -0.24633555 117.9934845 -0.22600937 C119.95463844 -0.22097185 121.91580718 -0.24062476 123.87686157 -0.26101685 C133.46475603 -0.16921496 133.46475603 -0.16921496 136.60073853 2.70629883 C138.27565002 5.39440918 138.27565002 5.39440918 138.33815002 9.01940918 C137.15345286 12.78256488 136.60279328 13.48685172 133.27565002 15.39440918 C130.62661076 15.77751923 130.62661076 15.77751923 127.55130005 15.78881836 C125.79953964 15.80584305 125.79953964 15.80584305 124.01239014 15.82321167 C122.73487381 15.82028107 121.45735748 15.81735046 120.14112854 15.81433105 C118.77920332 15.82167218 117.41728433 15.83025855 116.05537415 15.83999634 C112.35905709 15.86221625 108.66296293 15.86514283 104.96658826 15.86324883 C101.88006102 15.86312915 98.79358105 15.87169201 95.70706695 15.88002634 C88.42512703 15.89926196 81.14330175 15.90214361 73.86134338 15.89538574 C66.35057428 15.88874378 58.84029614 15.91161473 51.32962662 15.94869947 C44.87938625 15.97939189 38.42930386 15.99075705 31.97899193 15.98686266 C28.12726838 15.98479473 24.27592691 15.99028059 20.42427254 16.01475525 C16.80185524 16.03701294 13.18023644 16.03515391 9.55781555 16.01482773 C7.59666161 16.00979021 5.63549286 16.02944312 3.67443848 16.04983521 C-5.91345598 15.95803332 -5.91345598 15.95803332 -9.04943848 13.08251953 C-10.72434998 10.39440918 -10.72434998 10.39440918 -10.78684998 6.76940918 C-8.95143989 0.93928303 -5.82637053 0.02140692 0 0 Z " fill="#010101" transform="translate(166.72434997558594,102.6055908203125)"/>
<path d="M0 0 C3.64124783 1.31704709 4.916961 2.79855238 6.9375 6.0625 C6.9375 7.0525 6.9375 8.0425 6.9375 9.0625 C8.2678125 9.18625 8.2678125 9.18625 9.625 9.3125 C13.50394281 10.1907512 15.28438436 11.09725311 17.9375 14.0625 C18.56843128 17.98829463 18.4893949 20.10268277 16.5 23.5625 C13.12526569 25.53795423 11.1631738 25.04489901 7.3984375 24.42578125 C3.56593341 23.86003065 -0.1940332 24.00109577 -4.0625 24.0625 C-4.04232011 26.48194766 -4.04232011 26.48194766 -3.0625 29.0625 C-0.32361165 30.77363342 -0.32361165 30.77363342 3.0625 32 C10.10429679 35.02673722 14.96368551 37.68791394 18.875 44.375 C20.93341755 51.51891972 20.57169207 57.26213449 17.28515625 63.9765625 C15.10827635 67.34599399 12.33187158 69.93056711 8.9375 72.0625 C8.2775 72.0625 7.6175 72.0625 6.9375 72.0625 C6.875625 72.805 6.81375 73.5475 6.75 74.3125 C5.66609557 77.98109961 4.16330421 79.08302923 0.9375 81.0625 C-1.5625 81.6875 -1.5625 81.6875 -4.0625 81.0625 C-6.875 78.25 -6.875 78.25 -9.0625 75.0625 C-9.0625 74.0725 -9.0625 73.0825 -9.0625 72.0625 C-10.114375 71.9696875 -10.114375 71.9696875 -11.1875 71.875 C-15.14071304 70.75778762 -17.05963289 68.86062617 -20.0625 66.0625 C-21.65742803 62.87264393 -21.43866681 59.53317113 -21.0625 56.0625 C-20 54.0625 -20 54.0625 -18.0625 53.0625 C-14.75 52.5625 -14.75 52.5625 -11.0625 53.0625 C-9.0625 54.72916667 -7.0625 56.39583333 -5.0625 58.0625 C-1.39324368 58.64728294 -1.39324368 58.64728294 1.9375 58.0625 C4.16716747 56.24046419 4.16716747 56.24046419 4.25 53.625 C3.86584722 50.47494724 3.39340248 50.01011119 0.9375 48.0625 C-1.31032206 47.09077071 -3.58517369 46.18063436 -5.875 45.3125 C-12.5877686 42.62773632 -16.75375242 39.67999516 -20.0625 33.0625 C-20.55578755 27.20774289 -20.91994288 21.87265719 -18.375 16.5 C-16.06488998 14.06501916 -13.83436045 11.95903609 -11.0625 10.0625 C-10.4025 10.0625 -9.7425 10.0625 -9.0625 10.0625 C-9.000625 9.155 -8.93875 8.2475 -8.875 7.3125 C-8.0625 4.0625 -8.0625 4.0625 -5.875 1.625 C-3.0625 0.0625 -3.0625 0.0625 0 0 Z " fill="#040200" transform="translate(99.0625,397.9375)"/>
<path d="M0 0 C-4.38238453 4.51933405 -4.38238453 4.51933405 -6.796875 6.3984375 C-17.85404392 15.11148661 -25.21741462 29.11545884 -27 43 C-28.1955776 61.93480509 -25.38658522 78.6161384 -13.125 93.875 C-9.53597488 97.76636148 -5.26041666 100.88516204 -1 104 C-6.81195795 105.92405001 -12.23707517 103.33869268 -17.5234375 100.77734375 C-31.95892673 92.6033049 -41.41423109 80.94940507 -46 65 C-49.07700976 51.40987355 -47.07612713 37.83560214 -40.25 25.75 C-31.9123511 12.93242035 -16.67471839 -1.80267226 0 0 Z " fill="#C97200" transform="translate(90,387)"/>
<path d="M0 0 C7.45634335 -0.10144294 14.91250866 -0.17148385 22.36938477 -0.21972656 C24.90591075 -0.23983841 27.4423904 -0.26713161 29.97875977 -0.30175781 C33.62527911 -0.35029242 37.27118528 -0.37297363 40.91796875 -0.390625 C42.61822456 -0.42159271 42.61822456 -0.42159271 44.35282898 -0.45318604 C52.24476402 -0.45543388 52.24476402 -0.45543388 56.16918945 1.91113281 C59.13941897 5.3000225 60.0229076 6.76298974 59.9375 11.375 C58.76178854 15.92108431 57.29867511 17.70132489 54 21 C50.62021442 22.12659519 48.07183864 22.12020983 44.5090332 22.11352539 C43.52814224 22.11374443 43.52814224 22.11374443 42.5274353 22.1139679 C40.36851674 22.11327188 38.20968472 22.10549408 36.05078125 22.09765625 C34.55291287 22.09579096 33.05504389 22.09436758 31.55717468 22.09336853 C27.61654981 22.08955207 23.67596186 22.0797292 19.73535156 22.06866455 C15.71354675 22.05843172 11.69173596 22.0538669 7.66992188 22.04882812 C-0.22006901 22.03810616 -8.11002991 22.02104017 -16 22 C-15.59021408 21.52301163 -15.18042816 21.04602325 -14.75822449 20.55458069 C-14.21950211 19.92692307 -13.68077972 19.29926544 -13.12573242 18.65258789 C-12.5921965 18.03122452 -12.05866058 17.40986115 -11.50895691 16.76966858 C-9.73561098 14.68993088 -8.00685404 12.58210196 -6.3125 10.4375 C-5.75175781 9.73496094 -5.19101563 9.03242188 -4.61328125 8.30859375 C-2.76426098 5.66265918 -1.41862167 2.89541401 0 0 Z " fill="#A75F00" transform="translate(157,470)"/>
<path d="M0 0 C7.84969392 -0.09285592 15.69925815 -0.16384356 23.54936409 -0.20724869 C27.1948912 -0.22808571 30.84004136 -0.25633084 34.48535156 -0.30175781 C38.00614987 -0.34535643 41.52658661 -0.36916631 45.04763412 -0.37950897 C47.03847947 -0.39045006 49.02918022 -0.42165399 51.01980591 -0.45318604 C62.27002148 -0.45597021 62.27002148 -0.45597021 67 4 C69.57937911 7.07861378 70.0097666 8.45307058 69.9375 12.5 C68.92483745 16.28060685 67.70604174 18.211957 65 21 C62.53838983 22.23080509 60.93503007 22.12043977 58.18310547 22.11352539 C57.18221893 22.11344986 56.1813324 22.11337433 55.15011597 22.11329651 C54.06674957 22.10813522 52.98338318 22.10297394 51.8671875 22.09765625 C50.76021515 22.0962413 49.6532428 22.09482635 48.51272583 22.09336853 C44.96679007 22.08775772 41.42091677 22.07520337 37.875 22.0625 C35.47526133 22.05748639 33.07552167 22.05292325 30.67578125 22.04882812 C24.78383275 22.03778478 18.89192084 22.0210361 13 22 C12.61183105 21.19393311 12.22366211 20.38786621 11.82373047 19.55737305 C11.30182129 18.49043213 10.77991211 17.42349121 10.2421875 16.32421875 C9.73026855 15.27065186 9.21834961 14.21708496 8.69091797 13.1315918 C6.61078451 9.27917022 4.113563 6.00005944 1.3203125 2.64453125 C0 1 0 1 0 0 Z " fill="#E98400" transform="translate(147,393)"/>
<path d="M0 0 C6.15716454 -0.09197424 12.31193339 -0.17156995 18.46923828 -0.21972656 C20.56241953 -0.23980659 22.65554492 -0.2670764 24.74853516 -0.30175781 C27.76218469 -0.35043434 30.77509073 -0.37300512 33.7890625 -0.390625 C34.72054108 -0.41127014 35.65201965 -0.43191528 36.61172485 -0.45318604 C42.2648149 -0.45512586 45.53264737 0.18539919 50 4 C52.57937911 7.07861378 53.0097666 8.45307058 52.9375 12.5 C51.75940962 16.89820408 50.09433006 19.73325644 46.144104 22.12252808 C43.75676784 23.09954246 42.07812934 23.24182833 39.50683594 23.22705078 C38.62622498 23.22689972 37.74561401 23.22674866 36.83831787 23.22659302 C35.42561615 23.21110916 35.42561615 23.21110916 33.984375 23.1953125 C33.01340881 23.1924826 32.04244263 23.18965271 31.04205322 23.18673706 C27.94457615 23.17555292 24.8473895 23.15045142 21.75 23.125 C19.64844168 23.11496792 17.54687882 23.10584247 15.4453125 23.09765625 C10.29667342 23.07732197 5.14866135 23.03816965 0 23 C0 15.41 0 7.82 0 0 Z " fill="#C36F00" transform="translate(164,431)"/>
<path d="M0 0 C0.85078125 0.00322266 1.7015625 0.00644531 2.578125 0.00976562 C3.46757812 0.01814453 4.35703125 0.02652344 5.2734375 0.03515625 C6.170625 0.03966797 7.0678125 0.04417969 7.9921875 0.04882812 C10.21100398 0.06063034 12.42968768 0.0770947 14.6484375 0.09765625 C14.32391602 0.92128662 13.99939453 1.74491699 13.66503906 2.59350586 C12.52588011 6.5201025 12.36001852 10.11628884 12.3828125 14.1640625 C12.38089905 14.92057602 12.3789856 15.67708954 12.37701416 16.45652771 C12.37565968 18.0474379 12.37930438 19.63835941 12.38769531 21.22924805 C12.39842064 23.65634061 12.38776759 26.08269562 12.375 28.50976562 C12.37632143 30.06119954 12.3788835 31.612633 12.3828125 33.1640625 C12.37876404 33.88501602 12.37471558 34.60596954 12.37054443 35.34877014 C12.4104336 39.65753308 12.98679814 41.94355785 14.6484375 46.09765625 C21.5784375 46.59265625 21.5784375 46.59265625 28.6484375 47.09765625 C28.6484375 47.42765625 28.6484375 47.75765625 28.6484375 48.09765625 C24.20110451 48.22180873 19.7547049 48.31225082 15.30615234 48.37231445 C13.79490576 48.3973672 12.28377926 48.43142002 10.77294922 48.47485352 C8.59312249 48.53592315 6.41490488 48.56395541 4.234375 48.5859375 C2.27056885 48.62521362 2.27056885 48.62521362 0.26708984 48.6652832 C-4.48664351 47.91960583 -6.02379506 46.51362428 -9.3515625 43.09765625 C-10.53930925 39.534416 -10.55136393 36.25471096 -10.58984375 32.54296875 C-10.5979155 31.80440643 -10.60598724 31.06584412 -10.61430359 30.30490112 C-10.62812123 28.74316744 -10.63885375 27.18140386 -10.64672852 25.61962891 C-10.65825926 24.02513767 -10.67872863 22.43068537 -10.70825195 20.83642578 C-10.75096341 18.5300072 -10.76710045 16.22473388 -10.77734375 13.91796875 C-10.80360588 12.85523239 -10.80360588 12.85523239 -10.83039856 11.77102661 C-10.8146354 8.15754507 -10.43827245 6.23108872 -8.44995117 3.17138672 C-5.51535273 0.2712728 -4.0025978 -0.02668399 0 0 Z " fill="#1D7FCB" transform="translate(306.3515625,214.90234375)"/>
<path d="M0 0 C1.65 1.65 3.3 3.3 5 5 C6.31964699 6.30926488 7.63993407 7.61788499 8.9609375 8.92578125 C10.43234884 10.3879633 11.9037016 11.8502043 13.375 13.3125 C14.10460937 14.03373047 14.83421875 14.75496094 15.5859375 15.49804688 C19.70030741 19.59404906 23.61520859 23.78495232 27.40136719 28.18530273 C30.42665586 31.61947663 33.76303127 34.72566051 37.05859375 37.8984375 C39 40 39 40 39 42 C26.13 42 13.26 42 0 42 C0 28.14 0 14.28 0 0 Z " fill="#FCB454" transform="translate(345,29)"/>
<path d="M0 0 C9.24 0 18.48 0 28 0 C28 8.91 28 17.82 28 27 C18.76 27 9.52 27 0 27 C0 18.09 0 9.18 0 0 Z " fill="#307E45" transform="translate(363,306)"/>
<path d="M0 0 C8.91 0 17.82 0 27 0 C27 8.91 27 17.82 27 27 C18.09 27 9.18 27 0 27 C0 18.09 0 9.18 0 0 Z " fill="#317F46" transform="translate(364,438)"/>
<path d="M0 0 C8.91 0 17.82 0 27 0 C27 8.91 27 17.82 27 27 C18.09 27 9.18 27 0 27 C0 18.09 0 9.18 0 0 Z " fill="#307E45" transform="translate(296,438)"/>
<path d="M0 0 C8.91 0 17.82 0 27 0 C27 8.91 27 17.82 27 27 C18.09 27 9.18 27 0 27 C0 18.09 0 9.18 0 0 Z " fill="#317F46" transform="translate(364,374)"/>
<path d="M0 0 C8.91 0 17.82 0 27 0 C27 8.91 27 17.82 27 27 C18.09 27 9.18 27 0 27 C0 18.09 0 9.18 0 0 Z " fill="#317E45" transform="translate(296,374)"/>
<path d="M0 0 C8.91 0 17.82 0 27 0 C27 8.91 27 17.82 27 27 C18.09 27 9.18 27 0 27 C0 18.09 0 9.18 0 0 Z " fill="#FE9710" transform="translate(432,306)"/>
<path d="M0 0 C8.91 0 17.82 0 27 0 C27 8.91 27 17.82 27 27 C18.09 27 9.18 27 0 27 C0 18.09 0 9.18 0 0 Z " fill="#307D45" transform="translate(296,306)"/>
<path d="M0 0 C1.26650391 -0.01933594 2.53300781 -0.03867188 3.83789062 -0.05859375 C14.12748563 -0.00423773 14.12748563 -0.00423773 17.26953125 2.9765625 C19.34518644 6.2723335 19.73365466 7.80345764 18.9375 11.625 C17.28990675 14.25109347 16.602044 15.20571843 13.9375 16.625 C9.26339091 17.36114708 4.65910959 17.27609004 -0.0625 17.1875 C-1.33351562 17.19845703 -2.60453125 17.20941406 -3.9140625 17.22070312 C-14.56656261 17.13660444 -14.56656261 17.13660444 -19.0625 12.625 C-20.25 9.1875 -20.25 9.1875 -20.0625 5.625 C-14.76081552 -1.0458008 -7.97779999 -0.12217152 0 0 Z " fill="#0E0C09" transform="translate(176.0625,139.375)"/>
<path d="M0 0 C0.33 0 0.66 0 1 0 C1 66.33 1 132.66 1 201 C-3.95 201 -8.9 201 -14 201 C-15.485 198.525 -15.485 198.525 -17 196 C-16.66226563 195.49210938 -16.32453125 194.98421875 -15.9765625 194.4609375 C-11.37703403 187.36224326 -9.76179701 181.37976713 -9 173 C-6.03 173 -3.06 173 0 173 C0 115.91 0 58.82 0 0 Z " fill="#EFBE7E" transform="translate(242,227)"/>
<path d="M0 0 C1.62711914 -0.0299707 1.62711914 -0.0299707 3.28710938 -0.06054688 C11.20256646 -0.05568181 11.20256646 -0.05568181 15.27734375 2.28125 C17.0625 4.4375 17.0625 4.4375 17.6875 7.375 C17.04998016 10.49884721 16.25711365 12.1905427 13.93945312 14.38793945 C9.61725601 16.80483922 4.3090739 16.14461282 -0.5 16.0625 C-2.20446289 16.09150391 -2.20446289 16.09150391 -3.94335938 16.12109375 C-12.17481971 16.07253056 -12.17481971 16.07253056 -15.71484375 13.125 C-17.3958201 9.43007434 -17.08060748 7.29548775 -15.9375 3.4375 C-11.40332566 -0.99890238 -5.9636093 -0.03883937 0 0 Z " fill="#040302" transform="translate(336.9375,102.5625)"/>
<path d="M0 0 C0.33 0 0.66 0 1 0 C1.33 25.41 1.66 50.82 2 77 C10.25 77 18.5 77 27 77 C27 85 27 85 25.59375 87.46484375 C21.64613363 89.80130946 18.00609654 89.62027047 13.5 89.5625 C12.21802734 89.59827148 12.21802734 89.59827148 10.91015625 89.63476562 C10.08386719 89.63283203 9.25757813 89.63089844 8.40625 89.62890625 C7.28186523 89.6299939 7.28186523 89.6299939 6.13476562 89.63110352 C2.8112863 88.64857904 1.84072455 86.89273654 0 84 C-0.36714185 81.10706338 -0.50815776 78.60628754 -0.45410156 75.72143555 C-0.45468567 74.90140549 -0.45526978 74.08137543 -0.45587158 73.23649597 C-0.45309317 70.536134 -0.42201345 67.83688698 -0.390625 65.13671875 C-0.38316173 63.2605703 -0.3774692 61.38441404 -0.37347412 59.508255 C-0.35822458 54.57777261 -0.31894857 49.64776391 -0.2746582 44.71746826 C-0.23369087 39.68345548 -0.21545998 34.64936592 -0.1953125 29.61523438 C-0.1524537 19.74328183 -0.08421054 9.87168035 0 0 Z " fill="#E48303" transform="translate(432,376)"/>
<path d="M0 0 C9.24 0 18.48 0 28 0 C28 8.91 28 17.82 28 27 C18.76 27 9.52 27 0 27 C0 18.09 0 9.18 0 0 Z M1 1 C1 6.28 1 11.56 1 17 C9.58 17 18.16 17 27 17 C27 11.72 27 6.44 27 1 C18.42 1 9.84 1 1 1 Z " fill="#296B3A" transform="translate(363,306)"/>
<path d="M0 0 C0.33 0 0.66 0 1 0 C1 8.91 1 17.82 1 27 C-7.91 27 -16.82 27 -26 27 C-26 23.37 -26 19.74 -26 16 C-17.42 16 -8.84 16 0 16 C0 10.72 0 5.44 0 0 Z " fill="#2A6E3C" transform="translate(390,438)"/>
<path d="M0 0 C0.33 0 0.66 0 1 0 C1 8.91 1 17.82 1 27 C-7.91 27 -16.82 27 -26 27 C-26 23.37 -26 19.74 -26 16 C-17.42 16 -8.84 16 0 16 C0 10.72 0 5.44 0 0 Z " fill="#2A6D3C" transform="translate(390,374)"/>
<path d="M0 0 C8.91 0 17.82 0 27 0 C27 0.33 27 0.66 27 1 C18.42 1 9.84 1 1 1 C1 6.28 1 11.56 1 17 C9.58 17 18.16 17 27 17 C27 20.3 27 23.6 27 27 C18.09 27 9.18 27 0 27 C0 18.09 0 9.18 0 0 Z " fill="#EA8502" transform="translate(432,306)"/>
<path d="M0 0 C8.91 0 17.82 0 27 0 C27 3.63 27 7.26 27 11 C18.09 11 9.18 11 0 11 C0 7.37 0 3.74 0 0 Z " fill="#2A6F3D" transform="translate(296,454)"/>
<path d="M0 0 C8.91 0 17.82 0 27 0 C27 3.63 27 7.26 27 11 C18.09 11 9.18 11 0 11 C0 7.37 0 3.74 0 0 Z " fill="#2A6F3D" transform="translate(296,390)"/>
<path d="M0 0 C8.91 0 17.82 0 27 0 C27 3.3 27 6.6 27 10 C18.09 10 9.18 10 0 10 C0 6.7 0 3.4 0 0 Z " fill="#2B723E" transform="translate(296,323)"/>
<path d="M0 0 C4.29 0 8.58 0 13 0 C15 8.5 15 8.5 15 13 C11.37 13 7.74 13 4 13 C0 3.375 0 3.375 0 0 Z " fill="#C06D00" transform="translate(16,448)"/>
<path d="M0 0 C2.83203125 0.03255208 5.6640625 0.06510417 8.49609375 0.09765625 C8.16609375 4.05765625 7.83609375 8.01765625 7.49609375 12.09765625 C3.20609375 12.09765625 -1.08390625 12.09765625 -5.50390625 12.09765625 C-3.44124377 0.13421388 -3.44124377 0.13421388 0 0 Z " fill="#C26E00" transform="translate(21.50390625,420.90234375)"/>
<path d="M0 0 C0.66 0.33 1.32 0.66 2 1 C1.54109375 1.50789063 1.0821875 2.01578125 0.609375 2.5390625 C-0.00421875 3.22742188 -0.6178125 3.91578125 -1.25 4.625 C-1.89710937 5.34945313 -2.54421875 6.07390625 -3.2109375 6.8203125 C-5.1979179 9.09724489 -5.1979179 9.09724489 -6.875 12.5 C-9 15 -9 15 -11.2421875 15.3671875 C-13.5270298 15.37430539 -15.73134189 15.26176824 -18 15 C-13.14845163 8.78854791 -7.42369824 3.03416712 0 0 Z " fill="#C26E00" transform="translate(46,391)"/>
<path d="M0 0 C4.98086651 -0.78645261 4.98086651 -0.78645261 8 0 C10.84299119 2.66950157 12.87356053 5.7484318 15 9 C15.99122831 10.33986724 16.98837266 11.67546691 18 13 C14.48575165 11.70462451 11.52734063 10.1743389 8.4375 8.0625 C7.69371094 7.55847656 6.94992188 7.05445313 6.18359375 6.53515625 C5.46300781 6.02855469 4.74242187 5.52195312 4 5 C3.24847656 4.48308594 2.49695312 3.96617187 1.72265625 3.43359375 C1.15417969 2.96050781 0.58570312 2.48742187 0 2 C0 1.34 0 0.68 0 0 Z " fill="#B76800" transform="translate(31,476)"/>
</svg>
